<?xml version="1.0" encoding="UTF-8"?><svg id="info" xmlns="http://www.w3.org/2000/svg" viewBox="0 0 100 100"><path d="m50,95.17c-12.07,0-23.41-4.7-31.94-13.23-8.53-8.53-13.23-19.87-13.23-31.94s4.7-23.41,13.23-31.94,19.87-13.23,31.94-13.23,23.41,4.7,31.94,13.23c8.53,8.53,13.23,19.87,13.23,31.94s-4.7,23.41-13.23,31.94c-8.53,8.53-19.87,13.23-31.94,13.23Zm0-82.07c-20.35,0-36.9,16.55-36.9,36.9s16.55,36.9,36.9,36.9,36.9-16.55,36.9-36.9S70.35,13.1,50,13.1Z"/><g><polygon points="55.83 69.17 55.83 44.6 55.83 38.82 39.83 38.82 39.83 44.6 44.17 44.6 44.17 69.17 39.83 69.17 39.83 76.24 60.17 76.24 60.17 69.17 55.83 69.17"/><circle cx="50" cy="29.58" r="5.83" transform="translate(-5.46 12.28) rotate(-13.28)"/></g></svg>